<?xml version="1.0" standalone="no"?>
<!DOCTYPE svg PUBLIC "-//W3C//DTD SVG 20010904//EN"
 "http://www.w3.org/TR/2001/REC-SVG-20010904/DTD/svg10.dtd">
<svg version="1.0" xmlns="http://www.w3.org/2000/svg"
 width="577.000000pt" height="577.000000pt" viewBox="0 0 577.000000 577.000000"
 preserveAspectRatio="xMidYMid meet">
<metadata>
Created by potrace 1.11, written by Peter Selinger 2001-2013
</metadata>
<g transform="translate(0.000000,577.000000) scale(0.100000,-0.100000)"
fill="#000000" stroke="none">
<path d="M4300 5751 c-158 -51 -266 -187 -277 -350 -3 -42 -1 -93 5 -113 l10
-37 -172 -115 c-175 -117 -399 -280 -541 -393 -44 -35 -87 -70 -95 -76 -39
-31 -176 -143 -180 -147 -3 -3 -34 -30 -70 -60 -36 -30 -81 -70 -100 -87 -19
-18 -39 -33 -45 -33 -5 0 -35 10 -65 21 -57 22 -180 29 -264 15 -195 -32 -388
-170 -521 -371 -56 -85 -150 -266 -181 -350 -10 -27 -24 -61 -31 -75 -7 -14
-13 -31 -13 -39 0 -8 -2 -12 -5 -9 -3 2 -1 27 4 54 5 27 13 76 16 109 4 33 10
64 12 69 3 4 7 70 9 145 7 254 -50 378 -204 449 -45 20 -70 24 -146 24 -156 0
-298 -51 -445 -163 -127 -95 -268 -257 -317 -364 -37 -80 -40 -141 -12 -195
47 -86 121 -92 185 -13 107 130 164 191 222 239 156 129 291 144 321 35 15
-55 5 -245 -25 -466 -2 -22 -7 -56 -9 -75 -8 -59 -35 -244 -39 -265 -4 -18
-10 -60 -23 -155 -3 -19 -9 -60 -14 -90 -5 -30 -12 -68 -14 -85 -3 -16 -12
-73 -21 -125 -21 -127 -21 -127 -44 -270 -11 -69 -22 -141 -25 -160 -12 -68
-20 -186 -19 -265 1 -91 15 -152 42 -183 65 -76 278 -77 331 -3 33 47 49 105
76 276 13 88 33 212 44 275 11 63 22 131 25 150 3 19 8 42 10 50 2 8 7 31 10
50 3 19 15 76 26 125 97 438 242 820 387 1025 147 206 353 306 476 231 101
-63 105 -208 21 -721 -11 -67 -46 -267 -65 -365 -11 -60 -23 -123 -26 -140 -2
-16 -7 -37 -9 -45 -5 -19 -74 -421 -81 -475 -3 -22 -9 -64 -13 -94 -12 -76 -6
-260 8 -296 19 -47 51 -74 106 -90 52 -15 142 -14 186 3 88 34 133 133 154
337 2 28 6 59 9 70 2 11 7 45 11 75 4 30 9 64 11 75 2 10 6 37 9 60 3 22 17
99 31 170 162 855 419 1377 715 1453 19 5 46 8 60 7 13 -1 32 -3 41 -4 30 -2
86 -60 101 -104 14 -41 15 -197 3 -257 -6 -26 -23 -110 -30 -145 -3 -11 -13
-60 -25 -110 -11 -49 -22 -101 -25 -115 -2 -14 -21 -99 -41 -190 -50 -229 -73
-339 -80 -380 -3 -19 -7 -46 -10 -60 -13 -70 -23 -148 -30 -240 -7 -82 2 -68
-145 -224 -104 -111 -465 -471 -579 -576 -62 -58 -130 -120 -150 -139 -20 -18
-60 -54 -90 -80 -30 -25 -61 -52 -69 -60 -114 -112 -626 -511 -847 -659 -512
-344 -929 -507 -1137 -446 -153 46 -197 241 -133 584 25 130 86 338 116 392 5
10 9 22 9 28 0 6 9 29 19 53 11 23 38 85 61 137 54 123 143 293 235 450 59
100 74 136 79 180 10 85 17 143 22 170 2 14 7 52 10 85 4 33 8 63 11 67 2 5 2
8 0 8 -7 0 -198 -295 -262 -405 -32 -55 -69 -117 -81 -137 -43 -68 -201 -401
-252 -529 -41 -102 -92 -260 -117 -359 -48 -190 -66 -447 -40 -570 70 -323
333 -420 759 -280 50 17 100 34 111 39 427 192 824 453 1344 885 359 297 613
534 1054 984 l99 101 38 -77 c95 -189 282 -288 525 -277 98 4 199 31 280 73
129 68 331 255 376 350 41 83 39 226 -3 268 -19 19 -67 25 -93 11 -11 -5 -65
-57 -121 -116 -154 -161 -240 -211 -364 -212 -101 -1 -175 52 -206 144 -26 78
-15 252 26 437 11 47 22 96 24 110 3 14 18 88 35 165 161 749 156 722 155 920
-1 114 -4 140 -28 209 -70 206 -203 299 -425 299 -197 0 -359 -70 -507 -217
-111 -110 -240 -324 -308 -511 l-15 -40 7 60 c4 33 7 116 6 185 -1 137 -18
224 -60 299 -13 24 -24 47 -24 52 0 5 64 63 143 130 78 67 153 131 167 143
133 114 448 348 669 498 l173 117 47 -38 c77 -63 141 -85 251 -85 83 0 103 3
154 27 78 36 136 84 179 149 44 67 60 122 62 218 l2 75 64 18 c177 48 315 39
377 -27 77 -81 85 -235 26 -504 -94 -425 -365 -956 -804 -1577 -55 -78 -57
-84 -105 -275 -27 -107 -51 -202 -53 -210 -7 -20 62 65 174 215 502 668 831
1283 958 1792 8 34 18 83 22 110 3 26 8 52 11 56 12 20 12 265 -1 323 -23 107
-85 199 -169 248 -116 68 -304 72 -502 12 -27 -9 -54 -16 -60 -16 -5 1 -34 23
-63 50 -111 101 -256 135 -392 91z m239 -144 c107 -53 170 -191 138 -302 -34
-121 -138 -199 -262 -198 -77 0 -142 30 -194 90 -49 54 -70 115 -66 185 10
194 210 311 384 225z"/>
</g>
</svg>
