<svg id="Electron" xmlns="http://www.w3.org/2000/svg" viewBox="0 0 250.95 276.58"><defs><style>.cls-1{fill:#00adef;}</style></defs><title>logo-blue</title><path class="cls-1" d="M200.74,120.54l-5.13,20.21c30.79-38.88,53.66-78.87,56.3-109.27,1.79-20.6-9.9-24.76-17-25.4-5.39-.48-11.86.66-19.09,3.12a19.11,19.11,0,0,0-33.75,17c-18.7,11.7-38.94,27.38-57.84,44A20.21,20.21,0,0,0,114,67.66q-12.72,0-23.35,9.65T71.49,111.37q.3-1.35.9-4.79t1.35-8.91a71.5,71.5,0,0,0,.75-9.5q0-10-4.42-15.27T57.42,67.66a33.34,33.34,0,0,0-17.66,5.46,56.57,56.57,0,0,0-16,15.49,27.08,27.08,0,0,0-3.22,5.61,13.17,13.17,0,0,0-1,4.86,7.24,7.24,0,0,0,1.57,4.56,4.57,4.57,0,0,0,3.67,2q2.54,0,4.64-2.84,6.58-8.68,12-12.65t9.36-4q4.94,0,4.94,6.74a149.45,149.45,0,0,1-1.35,18q-2.25,17.22-6.14,40.71-2.24,12.72-3.22,20a92.83,92.83,0,0,0-1,11.9q0,6.89,2.4,9.36t7.93,2.47q5.84,0,7.86-3t3.07-10.63q4.94-36.07,12.35-57.25T92.89,95q7.78-8.31,15.12-8.31,4.34,0,6.51,2.69t2.17,8.38q0,10.48-6.88,46.7-2.55,13.47-4.19,23.43A103,103,0,0,0,104,184q0,6.59,2.32,9t7.41,2.4q5.84,0,8.46-3.07t3.67-12q4.34-33.53,11.3-54.48t14.67-30q7.71-9.05,14.74-9.06a6.85,6.85,0,0,1,5.76,2.62q2,2.62,2,7.86a41.92,41.92,0,0,1-.45,6.06q-.45,3.07-1.2,6.51t-1,4.79l-6,27.39q-3.58,16.69-3.59,25.51c-40.12,43.78-85.49,80.92-117,95.55-14.37,6.67-25.24,8.25-30.6,4.46-4.06-2.87-5.66-9.23-4.75-18.9,1.7-18.1,10.67-40.19,25.66-64.37l2.47-18.77c-21.4,30.95-34.27,59.54-36.41,82.36C.21,260.59,3,269.5,9.65,274.21a21.18,21.18,0,0,0,12.52,3.54c7.15,0,16-2.42,26.39-7.26,31.44-14.6,75.73-50.66,115-92.61a24.83,24.83,0,0,0,5.7,9.89q7.18,7.56,19.91,7.56a31.93,31.93,0,0,0,16-4.34q7.63-4.34,15.42-13.77,2.84-3.44,2.84-9.28A9.29,9.29,0,0,0,222.3,163a3.46,3.46,0,0,0-3.07-1.8,5.25,5.25,0,0,0-4,2.1q-6.44,7.63-11.15,10.93a16.68,16.68,0,0,1-9.66,3.29q-5.24,0-8.16-3.14T183.3,165a67.07,67.07,0,0,1,1.5-12.87l9.13-42.81a81.54,81.54,0,0,0,1.95-16q0-12.12-5.61-18.86t-16.09-6.74a33.54,33.54,0,0,0-23.05,9q-10,9-17.51,29.64A70.16,70.16,0,0,0,135,94c0-7.63-1.57-13.68-4.67-18.17,19.68-17.34,38.95-32,55.92-42.59A19.09,19.09,0,0,0,219,16.79a43.63,43.63,0,0,1,13.16-2.51c.66,0,1.31,0,1.93.08,5,.45,10.67,2.73,9.49,16.4C241.61,54,226.4,85.46,200.74,120.54Zm-.49-87.34A12.87,12.87,0,1,1,213.08,19,12.9,12.9,0,0,1,200.25,33.2Z" transform="translate(-1.14 -1.17)"/></svg>